<mxfile host="app.diagrams.net" agent="Mozilla/5.0 (Windows NT 10.0; Win64; x64) AppleWebKit/537.36 (KHTML, like Gecko) Chrome/141.0.0.0 Safari/537.36" version="28.2.8">
  <diagram id="iYW2_TeGkALTc1oEaMLu" name="Страница 1">
    <mxGraphModel dx="1042" dy="567" grid="1" gridSize="10" guides="1" tooltips="1" connect="1" arrows="1" fold="1" page="1" pageScale="1" pageWidth="827" pageHeight="1169" math="0" shadow="0">
      <root>
        <mxCell id="0" />
        <mxCell id="1" parent="0" />
        <mxCell id="9KIwmX_JMQ5P3gJYj08M-179" value="Days" style="shape=table;startSize=30;container=1;collapsible=0;childLayout=tableLayout;fontStyle=1;align=center;html=0;shadow=0;perimeterSpacing=0;swimlaneFillColor=none;gradientColor=none;allowArrows=1;snapToPoint=0;fixDash=0;metaEdit=0;movableLabel=0;autosize=0;fixedWidth=0;rowLines=1;columnLines=1;fixedRows=0;resizeLast=0;horizontal=1;top=0;bottom=0;left=0;right=0;swimlaneBody=1;swimlaneHead=1;" parent="1" vertex="1">
          <mxGeometry x="560" y="482" width="210" height="90" as="geometry" />
        </mxCell>
        <mxCell id="9KIwmX_JMQ5P3gJYj08M-180" value="" style="shape=tableRow;horizontal=0;startSize=0;swimlaneHead=0;swimlaneBody=0;top=0;left=0;bottom=0;right=0;collapsible=0;dropTarget=0;fillColor=none;points=[[0,0.5],[1,0.5]];portConstraint=eastwest;html=0;" parent="9KIwmX_JMQ5P3gJYj08M-179" vertex="1">
          <mxGeometry y="30" width="210" height="20" as="geometry" />
        </mxCell>
        <mxCell id="9KIwmX_JMQ5P3gJYj08M-181" value="&lt;u&gt;DayId&lt;/u&gt;" style="shape=partialRectangle;html=1;whiteSpace=wrap;connectable=0;fillColor=none;top=0;left=0;bottom=0;right=0;overflow=hidden;align=left;" parent="9KIwmX_JMQ5P3gJYj08M-180" vertex="1">
          <mxGeometry width="98" height="20" as="geometry">
            <mxRectangle width="98" height="20" as="alternateBounds" />
          </mxGeometry>
        </mxCell>
        <mxCell id="9KIwmX_JMQ5P3gJYj08M-182" value="Id" style="shape=partialRectangle;html=1;whiteSpace=wrap;connectable=0;fillColor=none;top=0;left=0;bottom=0;right=0;overflow=hidden;" parent="9KIwmX_JMQ5P3gJYj08M-180" vertex="1">
          <mxGeometry x="98" width="70" height="20" as="geometry">
            <mxRectangle width="70" height="20" as="alternateBounds" />
          </mxGeometry>
        </mxCell>
        <mxCell id="9KIwmX_JMQ5P3gJYj08M-183" value="PK" style="shape=partialRectangle;html=1;whiteSpace=wrap;connectable=0;fillColor=none;top=0;left=0;bottom=0;right=0;overflow=hidden;" parent="9KIwmX_JMQ5P3gJYj08M-180" vertex="1">
          <mxGeometry x="168" width="42" height="20" as="geometry">
            <mxRectangle width="42" height="20" as="alternateBounds" />
          </mxGeometry>
        </mxCell>
        <mxCell id="9KIwmX_JMQ5P3gJYj08M-184" value="" style="shape=tableRow;horizontal=0;startSize=0;swimlaneHead=0;swimlaneBody=0;top=0;left=0;bottom=0;right=0;collapsible=0;dropTarget=0;fillColor=none;points=[[0,0.5],[1,0.5]];portConstraint=eastwest;html=0;" parent="9KIwmX_JMQ5P3gJYj08M-179" vertex="1">
          <mxGeometry y="50" width="210" height="20" as="geometry" />
        </mxCell>
        <mxCell id="9KIwmX_JMQ5P3gJYj08M-185" value="DayNumber" style="shape=partialRectangle;html=1;whiteSpace=wrap;connectable=0;fillColor=none;top=0;left=0;bottom=0;right=0;overflow=hidden;align=left;" parent="9KIwmX_JMQ5P3gJYj08M-184" vertex="1">
          <mxGeometry width="98" height="20" as="geometry">
            <mxRectangle width="98" height="20" as="alternateBounds" />
          </mxGeometry>
        </mxCell>
        <mxCell id="9KIwmX_JMQ5P3gJYj08M-186" value="Number" style="shape=partialRectangle;html=1;whiteSpace=wrap;connectable=0;fillColor=none;top=0;left=0;bottom=0;right=0;overflow=hidden;" parent="9KIwmX_JMQ5P3gJYj08M-184" vertex="1">
          <mxGeometry x="98" width="70" height="20" as="geometry">
            <mxRectangle width="70" height="20" as="alternateBounds" />
          </mxGeometry>
        </mxCell>
        <mxCell id="9KIwmX_JMQ5P3gJYj08M-187" value="" style="shape=partialRectangle;html=1;whiteSpace=wrap;connectable=0;fillColor=none;top=0;left=0;bottom=0;right=0;overflow=hidden;" parent="9KIwmX_JMQ5P3gJYj08M-184" vertex="1">
          <mxGeometry x="168" width="42" height="20" as="geometry">
            <mxRectangle width="42" height="20" as="alternateBounds" />
          </mxGeometry>
        </mxCell>
        <mxCell id="Jm231_nbyRial1GPkGdm-2" value="" style="shape=tableRow;horizontal=0;startSize=0;swimlaneHead=0;swimlaneBody=0;top=0;left=0;bottom=0;right=0;collapsible=0;dropTarget=0;fillColor=none;points=[[0,0.5],[1,0.5]];portConstraint=eastwest;html=0;" parent="9KIwmX_JMQ5P3gJYj08M-179" vertex="1">
          <mxGeometry y="70" width="210" height="20" as="geometry" />
        </mxCell>
        <mxCell id="Jm231_nbyRial1GPkGdm-3" value="DayTitle" style="shape=partialRectangle;html=1;whiteSpace=wrap;connectable=0;fillColor=none;top=0;left=0;bottom=0;right=0;overflow=hidden;align=left;" parent="Jm231_nbyRial1GPkGdm-2" vertex="1">
          <mxGeometry width="98" height="20" as="geometry">
            <mxRectangle width="98" height="20" as="alternateBounds" />
          </mxGeometry>
        </mxCell>
        <mxCell id="Jm231_nbyRial1GPkGdm-4" value="Title" style="shape=partialRectangle;html=1;whiteSpace=wrap;connectable=0;fillColor=none;top=0;left=0;bottom=0;right=0;overflow=hidden;" parent="Jm231_nbyRial1GPkGdm-2" vertex="1">
          <mxGeometry x="98" width="70" height="20" as="geometry">
            <mxRectangle width="70" height="20" as="alternateBounds" />
          </mxGeometry>
        </mxCell>
        <mxCell id="Jm231_nbyRial1GPkGdm-5" value="" style="shape=partialRectangle;html=1;whiteSpace=wrap;connectable=0;fillColor=none;top=0;left=0;bottom=0;right=0;overflow=hidden;" parent="Jm231_nbyRial1GPkGdm-2" vertex="1">
          <mxGeometry x="168" width="42" height="20" as="geometry">
            <mxRectangle width="42" height="20" as="alternateBounds" />
          </mxGeometry>
        </mxCell>
        <mxCell id="9KIwmX_JMQ5P3gJYj08M-213" style="edgeStyle=elbowEdgeStyle;rounded=0;orthogonalLoop=1;jettySize=auto;html=1;entryX=1;entryY=0.962;entryDx=0;entryDy=0;startArrow=ERone;startFill=0;endArrow=ERmany;endFill=0;orthogonal=0;fixDash=0;elbow=vertical;exitX=0.087;exitY=-0.005;exitDx=0;exitDy=0;exitPerimeter=0;entryPerimeter=0;" parent="1" source="9KIwmX_JMQ5P3gJYj08M-20" target="9KIwmX_JMQ5P3gJYj08M-66" edge="1">
          <mxGeometry x="-0.4815" y="-20" relative="1" as="geometry">
            <mxPoint x="270" y="190" as="sourcePoint" />
            <Array as="points">
              <mxPoint x="240" y="130" />
              <mxPoint x="190" y="240" />
              <mxPoint x="200" y="200" />
            </Array>
            <mxPoint as="offset" />
          </mxGeometry>
        </mxCell>
        <mxCell id="9KIwmX_JMQ5P3gJYj08M-281" value="reported" style="edgeLabel;html=1;align=center;verticalAlign=middle;resizable=0;points=[];" parent="9KIwmX_JMQ5P3gJYj08M-213" vertex="1" connectable="0">
          <mxGeometry x="0.2245" relative="1" as="geometry">
            <mxPoint y="33" as="offset" />
          </mxGeometry>
        </mxCell>
        <mxCell id="9KIwmX_JMQ5P3gJYj08M-217" style="edgeStyle=elbowEdgeStyle;rounded=0;orthogonalLoop=1;jettySize=auto;elbow=vertical;html=1;startArrow=ERone;startFill=0;endArrow=ERmany;endFill=0;entryX=0.468;entryY=1.024;entryDx=0;entryDy=0;entryPerimeter=0;exitX=0.572;exitY=-0.003;exitDx=0;exitDy=0;exitPerimeter=0;" parent="1" source="9KIwmX_JMQ5P3gJYj08M-20" target="9KIwmX_JMQ5P3gJYj08M-125" edge="1">
          <mxGeometry relative="1" as="geometry">
            <mxPoint x="408" y="210" as="sourcePoint" />
            <Array as="points">
              <mxPoint x="408" y="200" />
              <mxPoint x="380" y="170" />
            </Array>
          </mxGeometry>
        </mxCell>
        <mxCell id="9KIwmX_JMQ5P3gJYj08M-278" value="ate" style="edgeLabel;html=1;align=center;verticalAlign=middle;resizable=0;points=[];" parent="9KIwmX_JMQ5P3gJYj08M-217" vertex="1" connectable="0">
          <mxGeometry x="-0.3037" y="-3" relative="1" as="geometry">
            <mxPoint x="-2" y="-12" as="offset" />
          </mxGeometry>
        </mxCell>
        <mxCell id="9KIwmX_JMQ5P3gJYj08M-241" style="edgeStyle=elbowEdgeStyle;rounded=0;orthogonalLoop=1;jettySize=auto;elbow=vertical;html=1;exitX=1;exitY=0.5;exitDx=0;exitDy=0;startArrow=ERone;startFill=0;endArrow=ERmany;endFill=0;entryX=0;entryY=0.5;entryDx=0;entryDy=0;" parent="1" source="9KIwmX_JMQ5P3gJYj08M-33" target="9KIwmX_JMQ5P3gJYj08M-100" edge="1">
          <mxGeometry relative="1" as="geometry">
            <mxPoint x="459.99999999999994" y="269.57" as="sourcePoint" />
            <mxPoint x="600" y="330" as="targetPoint" />
            <Array as="points">
              <mxPoint x="540" y="300" />
              <mxPoint x="610" y="330" />
            </Array>
          </mxGeometry>
        </mxCell>
        <mxCell id="9KIwmX_JMQ5P3gJYj08M-277" value="ownership" style="edgeLabel;html=1;align=center;verticalAlign=middle;resizable=0;points=[];" parent="9KIwmX_JMQ5P3gJYj08M-241" vertex="1" connectable="0">
          <mxGeometry x="-0.1862" relative="1" as="geometry">
            <mxPoint x="15" as="offset" />
          </mxGeometry>
        </mxCell>
        <mxCell id="9KIwmX_JMQ5P3gJYj08M-274" style="edgeStyle=orthogonalEdgeStyle;rounded=0;orthogonalLoop=1;jettySize=auto;html=1;entryX=0.335;entryY=0.004;entryDx=0;entryDy=0;startArrow=ERmany;startFill=0;endArrow=none;endFill=0;elbow=vertical;exitX=0.523;exitY=0.978;exitDx=0;exitDy=0;exitPerimeter=0;entryPerimeter=0;" parent="1" source="9KIwmX_JMQ5P3gJYj08M-45" target="9KIwmX_JMQ5P3gJYj08M-166" edge="1">
          <mxGeometry relative="1" as="geometry">
            <Array as="points">
              <mxPoint x="350" y="480" />
            </Array>
          </mxGeometry>
        </mxCell>
        <mxCell id="9KIwmX_JMQ5P3gJYj08M-275" value="follows" style="edgeLabel;html=1;align=center;verticalAlign=middle;resizable=0;points=[];" parent="9KIwmX_JMQ5P3gJYj08M-274" vertex="1" connectable="0">
          <mxGeometry x="-0.0534" relative="1" as="geometry">
            <mxPoint x="-5" y="-19" as="offset" />
          </mxGeometry>
        </mxCell>
        <mxCell id="9KIwmX_JMQ5P3gJYj08M-20" value="Users" style="shape=table;startSize=30;container=1;collapsible=0;childLayout=tableLayout;fontStyle=1;align=center;html=0;" parent="1" vertex="1">
          <mxGeometry x="240" y="200" width="210" height="170" as="geometry" />
        </mxCell>
        <mxCell id="9KIwmX_JMQ5P3gJYj08M-21" value="" style="shape=tableRow;horizontal=0;startSize=0;swimlaneHead=0;swimlaneBody=0;top=0;left=0;bottom=0;right=0;collapsible=0;dropTarget=0;fillColor=none;points=[[0,0.5],[1,0.5]];portConstraint=eastwest;html=0;" parent="9KIwmX_JMQ5P3gJYj08M-20" vertex="1">
          <mxGeometry y="30" width="210" height="20" as="geometry" />
        </mxCell>
        <mxCell id="9KIwmX_JMQ5P3gJYj08M-22" value="&lt;u&gt;UserId&lt;/u&gt;" style="shape=partialRectangle;html=1;whiteSpace=wrap;connectable=0;fillColor=none;top=0;left=0;bottom=0;right=0;overflow=hidden;align=left;" parent="9KIwmX_JMQ5P3gJYj08M-21" vertex="1">
          <mxGeometry width="70" height="20" as="geometry">
            <mxRectangle width="70" height="20" as="alternateBounds" />
          </mxGeometry>
        </mxCell>
        <mxCell id="9KIwmX_JMQ5P3gJYj08M-23" value="Id" style="shape=partialRectangle;html=1;whiteSpace=wrap;connectable=0;fillColor=none;top=0;left=0;bottom=0;right=0;overflow=hidden;" parent="9KIwmX_JMQ5P3gJYj08M-21" vertex="1">
          <mxGeometry x="70" width="100" height="20" as="geometry">
            <mxRectangle width="100" height="20" as="alternateBounds" />
          </mxGeometry>
        </mxCell>
        <mxCell id="9KIwmX_JMQ5P3gJYj08M-24" value="PK" style="shape=partialRectangle;html=1;whiteSpace=wrap;connectable=0;fillColor=none;top=0;left=0;bottom=0;right=0;overflow=hidden;" parent="9KIwmX_JMQ5P3gJYj08M-21" vertex="1">
          <mxGeometry x="170" width="40" height="20" as="geometry">
            <mxRectangle width="40" height="20" as="alternateBounds" />
          </mxGeometry>
        </mxCell>
        <mxCell id="9KIwmX_JMQ5P3gJYj08M-25" value="" style="shape=tableRow;horizontal=0;startSize=0;swimlaneHead=0;swimlaneBody=0;top=0;left=0;bottom=0;right=0;collapsible=0;dropTarget=0;fillColor=none;points=[[0,0.5],[1,0.5]];portConstraint=eastwest;html=0;" parent="9KIwmX_JMQ5P3gJYj08M-20" vertex="1">
          <mxGeometry y="50" width="210" height="20" as="geometry" />
        </mxCell>
        <mxCell id="9KIwmX_JMQ5P3gJYj08M-26" value="Name" style="shape=partialRectangle;html=1;whiteSpace=wrap;connectable=0;fillColor=none;top=0;left=0;bottom=0;right=0;overflow=hidden;align=left;" parent="9KIwmX_JMQ5P3gJYj08M-25" vertex="1">
          <mxGeometry width="70" height="20" as="geometry">
            <mxRectangle width="70" height="20" as="alternateBounds" />
          </mxGeometry>
        </mxCell>
        <mxCell id="9KIwmX_JMQ5P3gJYj08M-27" value="UserName" style="shape=partialRectangle;html=1;whiteSpace=wrap;connectable=0;fillColor=none;top=0;left=0;bottom=0;right=0;overflow=hidden;" parent="9KIwmX_JMQ5P3gJYj08M-25" vertex="1">
          <mxGeometry x="70" width="100" height="20" as="geometry">
            <mxRectangle width="100" height="20" as="alternateBounds" />
          </mxGeometry>
        </mxCell>
        <mxCell id="9KIwmX_JMQ5P3gJYj08M-28" value="" style="shape=partialRectangle;html=1;whiteSpace=wrap;connectable=0;fillColor=none;top=0;left=0;bottom=0;right=0;overflow=hidden;" parent="9KIwmX_JMQ5P3gJYj08M-25" vertex="1">
          <mxGeometry x="170" width="40" height="20" as="geometry">
            <mxRectangle width="40" height="20" as="alternateBounds" />
          </mxGeometry>
        </mxCell>
        <mxCell id="9KIwmX_JMQ5P3gJYj08M-29" value="" style="shape=tableRow;horizontal=0;startSize=0;swimlaneHead=0;swimlaneBody=0;top=0;left=0;bottom=0;right=0;collapsible=0;dropTarget=0;fillColor=none;points=[[0,0.5],[1,0.5]];portConstraint=eastwest;html=0;" parent="9KIwmX_JMQ5P3gJYj08M-20" vertex="1">
          <mxGeometry y="70" width="210" height="20" as="geometry" />
        </mxCell>
        <mxCell id="9KIwmX_JMQ5P3gJYj08M-30" value="Age" style="shape=partialRectangle;html=1;whiteSpace=wrap;connectable=0;fillColor=none;top=0;left=0;bottom=0;right=0;overflow=hidden;align=left;" parent="9KIwmX_JMQ5P3gJYj08M-29" vertex="1">
          <mxGeometry width="70" height="20" as="geometry">
            <mxRectangle width="70" height="20" as="alternateBounds" />
          </mxGeometry>
        </mxCell>
        <mxCell id="9KIwmX_JMQ5P3gJYj08M-31" value="Age" style="shape=partialRectangle;html=1;whiteSpace=wrap;connectable=0;fillColor=none;top=0;left=0;bottom=0;right=0;overflow=hidden;" parent="9KIwmX_JMQ5P3gJYj08M-29" vertex="1">
          <mxGeometry x="70" width="100" height="20" as="geometry">
            <mxRectangle width="100" height="20" as="alternateBounds" />
          </mxGeometry>
        </mxCell>
        <mxCell id="9KIwmX_JMQ5P3gJYj08M-32" value="" style="shape=partialRectangle;html=1;whiteSpace=wrap;connectable=0;fillColor=none;top=0;left=0;bottom=0;right=0;overflow=hidden;" parent="9KIwmX_JMQ5P3gJYj08M-29" vertex="1">
          <mxGeometry x="170" width="40" height="20" as="geometry">
            <mxRectangle width="40" height="20" as="alternateBounds" />
          </mxGeometry>
        </mxCell>
        <mxCell id="9KIwmX_JMQ5P3gJYj08M-33" value="" style="shape=tableRow;horizontal=0;startSize=0;swimlaneHead=0;swimlaneBody=0;top=0;left=0;bottom=0;right=0;collapsible=0;dropTarget=0;fillColor=none;points=[[0,0.5],[1,0.5]];portConstraint=eastwest;html=0;" parent="9KIwmX_JMQ5P3gJYj08M-20" vertex="1">
          <mxGeometry y="90" width="210" height="20" as="geometry" />
        </mxCell>
        <mxCell id="9KIwmX_JMQ5P3gJYj08M-34" value="Sex" style="shape=partialRectangle;html=1;whiteSpace=wrap;connectable=0;fillColor=none;top=0;left=0;bottom=0;right=0;overflow=hidden;align=left;" parent="9KIwmX_JMQ5P3gJYj08M-33" vertex="1">
          <mxGeometry width="70" height="20" as="geometry">
            <mxRectangle width="70" height="20" as="alternateBounds" />
          </mxGeometry>
        </mxCell>
        <mxCell id="9KIwmX_JMQ5P3gJYj08M-35" value="Sex" style="shape=partialRectangle;html=1;whiteSpace=wrap;connectable=0;fillColor=none;top=0;left=0;bottom=0;right=0;overflow=hidden;" parent="9KIwmX_JMQ5P3gJYj08M-33" vertex="1">
          <mxGeometry x="70" width="100" height="20" as="geometry">
            <mxRectangle width="100" height="20" as="alternateBounds" />
          </mxGeometry>
        </mxCell>
        <mxCell id="9KIwmX_JMQ5P3gJYj08M-36" value="O" style="shape=partialRectangle;html=1;whiteSpace=wrap;connectable=0;fillColor=none;top=0;left=0;bottom=0;right=0;overflow=hidden;" parent="9KIwmX_JMQ5P3gJYj08M-33" vertex="1">
          <mxGeometry x="170" width="40" height="20" as="geometry">
            <mxRectangle width="40" height="20" as="alternateBounds" />
          </mxGeometry>
        </mxCell>
        <mxCell id="9KIwmX_JMQ5P3gJYj08M-37" value="" style="shape=tableRow;horizontal=0;startSize=0;swimlaneHead=0;swimlaneBody=0;top=0;left=0;bottom=0;right=0;collapsible=0;dropTarget=0;fillColor=none;points=[[0,0.5],[1,0.5]];portConstraint=eastwest;html=0;" parent="9KIwmX_JMQ5P3gJYj08M-20" vertex="1">
          <mxGeometry y="110" width="210" height="20" as="geometry" />
        </mxCell>
        <mxCell id="9KIwmX_JMQ5P3gJYj08M-38" value="Weight" style="shape=partialRectangle;html=1;whiteSpace=wrap;connectable=0;fillColor=none;top=0;left=0;bottom=0;right=0;overflow=hidden;align=left;" parent="9KIwmX_JMQ5P3gJYj08M-37" vertex="1">
          <mxGeometry width="70" height="20" as="geometry">
            <mxRectangle width="70" height="20" as="alternateBounds" />
          </mxGeometry>
        </mxCell>
        <mxCell id="9KIwmX_JMQ5P3gJYj08M-39" value="PersonWeight" style="shape=partialRectangle;html=1;whiteSpace=wrap;connectable=0;fillColor=none;top=0;left=0;bottom=0;right=0;overflow=hidden;" parent="9KIwmX_JMQ5P3gJYj08M-37" vertex="1">
          <mxGeometry x="70" width="100" height="20" as="geometry">
            <mxRectangle width="100" height="20" as="alternateBounds" />
          </mxGeometry>
        </mxCell>
        <mxCell id="9KIwmX_JMQ5P3gJYj08M-40" value="" style="shape=partialRectangle;html=1;whiteSpace=wrap;connectable=0;fillColor=none;top=0;left=0;bottom=0;right=0;overflow=hidden;" parent="9KIwmX_JMQ5P3gJYj08M-37" vertex="1">
          <mxGeometry x="170" width="40" height="20" as="geometry">
            <mxRectangle width="40" height="20" as="alternateBounds" />
          </mxGeometry>
        </mxCell>
        <mxCell id="9KIwmX_JMQ5P3gJYj08M-41" value="" style="shape=tableRow;horizontal=0;startSize=0;swimlaneHead=0;swimlaneBody=0;top=0;left=0;bottom=0;right=0;collapsible=0;dropTarget=0;fillColor=none;points=[[0,0.5],[1,0.5]];portConstraint=eastwest;html=0;" parent="9KIwmX_JMQ5P3gJYj08M-20" vertex="1">
          <mxGeometry y="130" width="210" height="20" as="geometry" />
        </mxCell>
        <mxCell id="9KIwmX_JMQ5P3gJYj08M-42" value="Height" style="shape=partialRectangle;html=1;whiteSpace=wrap;connectable=0;fillColor=none;top=0;left=0;bottom=0;right=0;overflow=hidden;align=left;" parent="9KIwmX_JMQ5P3gJYj08M-41" vertex="1">
          <mxGeometry width="70" height="20" as="geometry">
            <mxRectangle width="70" height="20" as="alternateBounds" />
          </mxGeometry>
        </mxCell>
        <mxCell id="9KIwmX_JMQ5P3gJYj08M-43" value="PersonHeight" style="shape=partialRectangle;html=1;whiteSpace=wrap;connectable=0;fillColor=none;top=0;left=0;bottom=0;right=0;overflow=hidden;" parent="9KIwmX_JMQ5P3gJYj08M-41" vertex="1">
          <mxGeometry x="70" width="100" height="20" as="geometry">
            <mxRectangle width="100" height="20" as="alternateBounds" />
          </mxGeometry>
        </mxCell>
        <mxCell id="9KIwmX_JMQ5P3gJYj08M-44" value="" style="shape=partialRectangle;html=1;whiteSpace=wrap;connectable=0;fillColor=none;top=0;left=0;bottom=0;right=0;overflow=hidden;" parent="9KIwmX_JMQ5P3gJYj08M-41" vertex="1">
          <mxGeometry x="170" width="40" height="20" as="geometry">
            <mxRectangle width="40" height="20" as="alternateBounds" />
          </mxGeometry>
        </mxCell>
        <mxCell id="9KIwmX_JMQ5P3gJYj08M-45" value="" style="shape=tableRow;horizontal=0;startSize=0;swimlaneHead=0;swimlaneBody=0;top=0;left=0;bottom=0;right=0;collapsible=0;dropTarget=0;fillColor=none;points=[[0,0.5],[1,0.5]];portConstraint=eastwest;html=0;" parent="9KIwmX_JMQ5P3gJYj08M-20" vertex="1">
          <mxGeometry y="150" width="210" height="20" as="geometry" />
        </mxCell>
        <mxCell id="9KIwmX_JMQ5P3gJYj08M-46" value="&lt;u&gt;Email&lt;/u&gt;" style="shape=partialRectangle;html=1;whiteSpace=wrap;connectable=0;fillColor=none;top=0;left=0;bottom=0;right=0;overflow=hidden;align=left;" parent="9KIwmX_JMQ5P3gJYj08M-45" vertex="1">
          <mxGeometry width="70" height="20" as="geometry">
            <mxRectangle width="70" height="20" as="alternateBounds" />
          </mxGeometry>
        </mxCell>
        <mxCell id="9KIwmX_JMQ5P3gJYj08M-47" value="Email" style="shape=partialRectangle;html=1;whiteSpace=wrap;connectable=0;fillColor=none;top=0;left=0;bottom=0;right=0;overflow=hidden;" parent="9KIwmX_JMQ5P3gJYj08M-45" vertex="1">
          <mxGeometry x="70" width="100" height="20" as="geometry">
            <mxRectangle width="100" height="20" as="alternateBounds" />
          </mxGeometry>
        </mxCell>
        <mxCell id="9KIwmX_JMQ5P3gJYj08M-48" value="K1" style="shape=partialRectangle;html=1;whiteSpace=wrap;connectable=0;fillColor=none;top=0;left=0;bottom=0;right=0;overflow=hidden;" parent="9KIwmX_JMQ5P3gJYj08M-45" vertex="1">
          <mxGeometry x="170" width="40" height="20" as="geometry">
            <mxRectangle width="40" height="20" as="alternateBounds" />
          </mxGeometry>
        </mxCell>
        <mxCell id="9KIwmX_JMQ5P3gJYj08M-53" value="Logs" style="shape=table;startSize=30;container=1;collapsible=0;childLayout=tableLayout;fontStyle=1;align=center;html=0;" parent="1" vertex="1">
          <mxGeometry x="10" y="40" width="210" height="110" as="geometry" />
        </mxCell>
        <mxCell id="9KIwmX_JMQ5P3gJYj08M-54" value="" style="shape=tableRow;horizontal=0;startSize=0;swimlaneHead=0;swimlaneBody=0;top=0;left=0;bottom=0;right=0;collapsible=0;dropTarget=0;fillColor=none;points=[[0,0.5],[1,0.5]];portConstraint=eastwest;html=0;" parent="9KIwmX_JMQ5P3gJYj08M-53" vertex="1">
          <mxGeometry y="30" width="210" height="20" as="geometry" />
        </mxCell>
        <mxCell id="9KIwmX_JMQ5P3gJYj08M-55" value="&lt;u&gt;LogId&lt;/u&gt;" style="shape=partialRectangle;html=1;whiteSpace=wrap;connectable=0;fillColor=none;top=0;left=0;bottom=0;right=0;overflow=hidden;align=left;" parent="9KIwmX_JMQ5P3gJYj08M-54" vertex="1">
          <mxGeometry width="90" height="20" as="geometry">
            <mxRectangle width="90" height="20" as="alternateBounds" />
          </mxGeometry>
        </mxCell>
        <mxCell id="9KIwmX_JMQ5P3gJYj08M-56" value="Id" style="shape=partialRectangle;html=1;whiteSpace=wrap;connectable=0;fillColor=none;top=0;left=0;bottom=0;right=0;overflow=hidden;" parent="9KIwmX_JMQ5P3gJYj08M-54" vertex="1">
          <mxGeometry x="90" width="80" height="20" as="geometry">
            <mxRectangle width="80" height="20" as="alternateBounds" />
          </mxGeometry>
        </mxCell>
        <mxCell id="9KIwmX_JMQ5P3gJYj08M-57" value="PK" style="shape=partialRectangle;html=1;whiteSpace=wrap;connectable=0;fillColor=none;top=0;left=0;bottom=0;right=0;overflow=hidden;" parent="9KIwmX_JMQ5P3gJYj08M-54" vertex="1">
          <mxGeometry x="170" width="40" height="20" as="geometry">
            <mxRectangle width="40" height="20" as="alternateBounds" />
          </mxGeometry>
        </mxCell>
        <mxCell id="9KIwmX_JMQ5P3gJYj08M-62" value="" style="shape=tableRow;horizontal=0;startSize=0;swimlaneHead=0;swimlaneBody=0;top=0;left=0;bottom=0;right=0;collapsible=0;dropTarget=0;fillColor=none;points=[[0,0.5],[1,0.5]];portConstraint=eastwest;html=0;" parent="9KIwmX_JMQ5P3gJYj08M-53" vertex="1">
          <mxGeometry y="50" width="210" height="20" as="geometry" />
        </mxCell>
        <mxCell id="9KIwmX_JMQ5P3gJYj08M-63" value="LogDateTime" style="shape=partialRectangle;html=1;whiteSpace=wrap;connectable=0;fillColor=none;top=0;left=0;bottom=0;right=0;overflow=hidden;align=left;" parent="9KIwmX_JMQ5P3gJYj08M-62" vertex="1">
          <mxGeometry width="90" height="20" as="geometry">
            <mxRectangle width="90" height="20" as="alternateBounds" />
          </mxGeometry>
        </mxCell>
        <mxCell id="9KIwmX_JMQ5P3gJYj08M-64" value="DateTime" style="shape=partialRectangle;html=1;whiteSpace=wrap;connectable=0;fillColor=none;top=0;left=0;bottom=0;right=0;overflow=hidden;" parent="9KIwmX_JMQ5P3gJYj08M-62" vertex="1">
          <mxGeometry x="90" width="80" height="20" as="geometry">
            <mxRectangle width="80" height="20" as="alternateBounds" />
          </mxGeometry>
        </mxCell>
        <mxCell id="9KIwmX_JMQ5P3gJYj08M-65" value="" style="shape=partialRectangle;html=1;whiteSpace=wrap;connectable=0;fillColor=none;top=0;left=0;bottom=0;right=0;overflow=hidden;" parent="9KIwmX_JMQ5P3gJYj08M-62" vertex="1">
          <mxGeometry x="170" width="40" height="20" as="geometry">
            <mxRectangle width="40" height="20" as="alternateBounds" />
          </mxGeometry>
        </mxCell>
        <mxCell id="9KIwmX_JMQ5P3gJYj08M-66" value="" style="shape=tableRow;horizontal=0;startSize=0;swimlaneHead=0;swimlaneBody=0;top=0;left=0;bottom=0;right=0;collapsible=0;dropTarget=0;fillColor=none;points=[[0,0.5],[1,0.5]];portConstraint=eastwest;html=0;" parent="9KIwmX_JMQ5P3gJYj08M-53" vertex="1">
          <mxGeometry y="70" width="210" height="20" as="geometry" />
        </mxCell>
        <mxCell id="9KIwmX_JMQ5P3gJYj08M-67" value="Weight" style="shape=partialRectangle;html=1;whiteSpace=wrap;connectable=0;fillColor=none;top=0;left=0;bottom=0;right=0;overflow=hidden;align=left;" parent="9KIwmX_JMQ5P3gJYj08M-66" vertex="1">
          <mxGeometry width="90" height="20" as="geometry">
            <mxRectangle width="90" height="20" as="alternateBounds" />
          </mxGeometry>
        </mxCell>
        <mxCell id="9KIwmX_JMQ5P3gJYj08M-68" value="PersonWeight" style="shape=partialRectangle;html=1;whiteSpace=wrap;connectable=0;fillColor=none;top=0;left=0;bottom=0;right=0;overflow=hidden;" parent="9KIwmX_JMQ5P3gJYj08M-66" vertex="1">
          <mxGeometry x="90" width="80" height="20" as="geometry">
            <mxRectangle width="80" height="20" as="alternateBounds" />
          </mxGeometry>
        </mxCell>
        <mxCell id="9KIwmX_JMQ5P3gJYj08M-69" value="" style="shape=partialRectangle;html=1;whiteSpace=wrap;connectable=0;fillColor=none;top=0;left=0;bottom=0;right=0;overflow=hidden;" parent="9KIwmX_JMQ5P3gJYj08M-66" vertex="1">
          <mxGeometry x="170" width="40" height="20" as="geometry">
            <mxRectangle width="40" height="20" as="alternateBounds" />
          </mxGeometry>
        </mxCell>
        <mxCell id="9KIwmX_JMQ5P3gJYj08M-70" value="" style="shape=tableRow;horizontal=0;startSize=0;swimlaneHead=0;swimlaneBody=0;top=0;left=0;bottom=0;right=0;collapsible=0;dropTarget=0;fillColor=none;points=[[0,0.5],[1,0.5]];portConstraint=eastwest;html=0;" parent="9KIwmX_JMQ5P3gJYj08M-53" vertex="1">
          <mxGeometry y="90" width="210" height="20" as="geometry" />
        </mxCell>
        <mxCell id="9KIwmX_JMQ5P3gJYj08M-71" value="Height" style="shape=partialRectangle;html=1;whiteSpace=wrap;connectable=0;fillColor=none;top=0;left=0;bottom=0;right=0;overflow=hidden;align=left;" parent="9KIwmX_JMQ5P3gJYj08M-70" vertex="1">
          <mxGeometry width="90" height="20" as="geometry">
            <mxRectangle width="90" height="20" as="alternateBounds" />
          </mxGeometry>
        </mxCell>
        <mxCell id="9KIwmX_JMQ5P3gJYj08M-72" value="PersonHeight" style="shape=partialRectangle;html=1;whiteSpace=wrap;connectable=0;fillColor=none;top=0;left=0;bottom=0;right=0;overflow=hidden;" parent="9KIwmX_JMQ5P3gJYj08M-70" vertex="1">
          <mxGeometry x="90" width="80" height="20" as="geometry">
            <mxRectangle width="80" height="20" as="alternateBounds" />
          </mxGeometry>
        </mxCell>
        <mxCell id="9KIwmX_JMQ5P3gJYj08M-73" value="" style="shape=partialRectangle;html=1;whiteSpace=wrap;connectable=0;fillColor=none;top=0;left=0;bottom=0;right=0;overflow=hidden;" parent="9KIwmX_JMQ5P3gJYj08M-70" vertex="1">
          <mxGeometry x="170" width="40" height="20" as="geometry">
            <mxRectangle width="40" height="20" as="alternateBounds" />
          </mxGeometry>
        </mxCell>
        <mxCell id="9KIwmX_JMQ5P3gJYj08M-87" value="Foods" style="shape=table;startSize=30;container=1;collapsible=0;childLayout=tableLayout;fontStyle=1;align=center;html=0;" parent="1" vertex="1">
          <mxGeometry x="560" y="200" width="210" height="150" as="geometry" />
        </mxCell>
        <mxCell id="9KIwmX_JMQ5P3gJYj08M-88" value="" style="shape=tableRow;horizontal=0;startSize=0;swimlaneHead=0;swimlaneBody=0;top=0;left=0;bottom=0;right=0;collapsible=0;dropTarget=0;fillColor=none;points=[[0,0.5],[1,0.5]];portConstraint=eastwest;html=0;" parent="9KIwmX_JMQ5P3gJYj08M-87" vertex="1">
          <mxGeometry y="30" width="210" height="20" as="geometry" />
        </mxCell>
        <mxCell id="9KIwmX_JMQ5P3gJYj08M-89" value="&lt;u&gt;FoodId&lt;/u&gt;" style="shape=partialRectangle;html=1;whiteSpace=wrap;connectable=0;fillColor=none;top=0;left=0;bottom=0;right=0;overflow=hidden;align=left;" parent="9KIwmX_JMQ5P3gJYj08M-88" vertex="1">
          <mxGeometry width="90" height="20" as="geometry">
            <mxRectangle width="90" height="20" as="alternateBounds" />
          </mxGeometry>
        </mxCell>
        <mxCell id="9KIwmX_JMQ5P3gJYj08M-90" value="Id" style="shape=partialRectangle;html=1;whiteSpace=wrap;connectable=0;fillColor=none;top=0;left=0;bottom=0;right=0;overflow=hidden;" parent="9KIwmX_JMQ5P3gJYj08M-88" vertex="1">
          <mxGeometry x="90" width="80" height="20" as="geometry">
            <mxRectangle width="80" height="20" as="alternateBounds" />
          </mxGeometry>
        </mxCell>
        <mxCell id="9KIwmX_JMQ5P3gJYj08M-91" value="PK" style="shape=partialRectangle;html=1;whiteSpace=wrap;connectable=0;fillColor=none;top=0;left=0;bottom=0;right=0;overflow=hidden;" parent="9KIwmX_JMQ5P3gJYj08M-88" vertex="1">
          <mxGeometry x="170" width="40" height="20" as="geometry">
            <mxRectangle width="40" height="20" as="alternateBounds" />
          </mxGeometry>
        </mxCell>
        <mxCell id="9KIwmX_JMQ5P3gJYj08M-92" value="" style="shape=tableRow;horizontal=0;startSize=0;swimlaneHead=0;swimlaneBody=0;top=0;left=0;bottom=0;right=0;collapsible=0;dropTarget=0;fillColor=none;points=[[0,0.5],[1,0.5]];portConstraint=eastwest;html=0;" parent="9KIwmX_JMQ5P3gJYj08M-87" vertex="1">
          <mxGeometry y="50" width="210" height="20" as="geometry" />
        </mxCell>
        <mxCell id="9KIwmX_JMQ5P3gJYj08M-93" value="FoodTitle" style="shape=partialRectangle;html=1;whiteSpace=wrap;connectable=0;fillColor=none;top=0;left=0;bottom=0;right=0;overflow=hidden;align=left;" parent="9KIwmX_JMQ5P3gJYj08M-92" vertex="1">
          <mxGeometry width="90" height="20" as="geometry">
            <mxRectangle width="90" height="20" as="alternateBounds" />
          </mxGeometry>
        </mxCell>
        <mxCell id="9KIwmX_JMQ5P3gJYj08M-94" value="Title" style="shape=partialRectangle;html=1;whiteSpace=wrap;connectable=0;fillColor=none;top=0;left=0;bottom=0;right=0;overflow=hidden;" parent="9KIwmX_JMQ5P3gJYj08M-92" vertex="1">
          <mxGeometry x="90" width="80" height="20" as="geometry">
            <mxRectangle width="80" height="20" as="alternateBounds" />
          </mxGeometry>
        </mxCell>
        <mxCell id="9KIwmX_JMQ5P3gJYj08M-95" value="" style="shape=partialRectangle;html=1;whiteSpace=wrap;connectable=0;fillColor=none;top=0;left=0;bottom=0;right=0;overflow=hidden;" parent="9KIwmX_JMQ5P3gJYj08M-92" vertex="1">
          <mxGeometry x="170" width="40" height="20" as="geometry">
            <mxRectangle width="40" height="20" as="alternateBounds" />
          </mxGeometry>
        </mxCell>
        <mxCell id="9KIwmX_JMQ5P3gJYj08M-96" value="" style="shape=tableRow;horizontal=0;startSize=0;swimlaneHead=0;swimlaneBody=0;top=0;left=0;bottom=0;right=0;collapsible=0;dropTarget=0;fillColor=none;points=[[0,0.5],[1,0.5]];portConstraint=eastwest;html=0;" parent="9KIwmX_JMQ5P3gJYj08M-87" vertex="1">
          <mxGeometry y="70" width="210" height="20" as="geometry" />
        </mxCell>
        <mxCell id="9KIwmX_JMQ5P3gJYj08M-97" value="Cals" style="shape=partialRectangle;html=1;whiteSpace=wrap;connectable=0;fillColor=none;top=0;left=0;bottom=0;right=0;overflow=hidden;align=left;" parent="9KIwmX_JMQ5P3gJYj08M-96" vertex="1">
          <mxGeometry width="90" height="20" as="geometry">
            <mxRectangle width="90" height="20" as="alternateBounds" />
          </mxGeometry>
        </mxCell>
        <mxCell id="9KIwmX_JMQ5P3gJYj08M-98" value="Cals" style="shape=partialRectangle;html=1;whiteSpace=wrap;connectable=0;fillColor=none;top=0;left=0;bottom=0;right=0;overflow=hidden;" parent="9KIwmX_JMQ5P3gJYj08M-96" vertex="1">
          <mxGeometry x="90" width="80" height="20" as="geometry">
            <mxRectangle width="80" height="20" as="alternateBounds" />
          </mxGeometry>
        </mxCell>
        <mxCell id="9KIwmX_JMQ5P3gJYj08M-99" value="" style="shape=partialRectangle;html=1;whiteSpace=wrap;connectable=0;fillColor=none;top=0;left=0;bottom=0;right=0;overflow=hidden;" parent="9KIwmX_JMQ5P3gJYj08M-96" vertex="1">
          <mxGeometry x="170" width="40" height="20" as="geometry">
            <mxRectangle width="40" height="20" as="alternateBounds" />
          </mxGeometry>
        </mxCell>
        <mxCell id="9KIwmX_JMQ5P3gJYj08M-100" value="" style="shape=tableRow;horizontal=0;startSize=0;swimlaneHead=0;swimlaneBody=0;top=0;left=0;bottom=0;right=0;collapsible=0;dropTarget=0;fillColor=none;points=[[0,0.5],[1,0.5]];portConstraint=eastwest;html=0;" parent="9KIwmX_JMQ5P3gJYj08M-87" vertex="1">
          <mxGeometry y="90" width="210" height="20" as="geometry" />
        </mxCell>
        <mxCell id="9KIwmX_JMQ5P3gJYj08M-101" value="Carbs" style="shape=partialRectangle;html=1;whiteSpace=wrap;connectable=0;fillColor=none;top=0;left=0;bottom=0;right=0;overflow=hidden;align=left;" parent="9KIwmX_JMQ5P3gJYj08M-100" vertex="1">
          <mxGeometry width="90" height="20" as="geometry">
            <mxRectangle width="90" height="20" as="alternateBounds" />
          </mxGeometry>
        </mxCell>
        <mxCell id="9KIwmX_JMQ5P3gJYj08M-102" value="Gram" style="shape=partialRectangle;html=1;whiteSpace=wrap;connectable=0;fillColor=none;top=0;left=0;bottom=0;right=0;overflow=hidden;" parent="9KIwmX_JMQ5P3gJYj08M-100" vertex="1">
          <mxGeometry x="90" width="80" height="20" as="geometry">
            <mxRectangle width="80" height="20" as="alternateBounds" />
          </mxGeometry>
        </mxCell>
        <mxCell id="9KIwmX_JMQ5P3gJYj08M-103" value="" style="shape=partialRectangle;html=1;whiteSpace=wrap;connectable=0;fillColor=none;top=0;left=0;bottom=0;right=0;overflow=hidden;" parent="9KIwmX_JMQ5P3gJYj08M-100" vertex="1">
          <mxGeometry x="170" width="40" height="20" as="geometry">
            <mxRectangle width="40" height="20" as="alternateBounds" />
          </mxGeometry>
        </mxCell>
        <mxCell id="9KIwmX_JMQ5P3gJYj08M-104" value="" style="shape=tableRow;horizontal=0;startSize=0;swimlaneHead=0;swimlaneBody=0;top=0;left=0;bottom=0;right=0;collapsible=0;dropTarget=0;fillColor=none;points=[[0,0.5],[1,0.5]];portConstraint=eastwest;html=0;" parent="9KIwmX_JMQ5P3gJYj08M-87" vertex="1">
          <mxGeometry y="110" width="210" height="20" as="geometry" />
        </mxCell>
        <mxCell id="9KIwmX_JMQ5P3gJYj08M-105" value="Protein" style="shape=partialRectangle;html=1;whiteSpace=wrap;connectable=0;fillColor=none;top=0;left=0;bottom=0;right=0;overflow=hidden;align=left;" parent="9KIwmX_JMQ5P3gJYj08M-104" vertex="1">
          <mxGeometry width="90" height="20" as="geometry">
            <mxRectangle width="90" height="20" as="alternateBounds" />
          </mxGeometry>
        </mxCell>
        <mxCell id="9KIwmX_JMQ5P3gJYj08M-106" value="Gram" style="shape=partialRectangle;html=1;whiteSpace=wrap;connectable=0;fillColor=none;top=0;left=0;bottom=0;right=0;overflow=hidden;" parent="9KIwmX_JMQ5P3gJYj08M-104" vertex="1">
          <mxGeometry x="90" width="80" height="20" as="geometry">
            <mxRectangle width="80" height="20" as="alternateBounds" />
          </mxGeometry>
        </mxCell>
        <mxCell id="9KIwmX_JMQ5P3gJYj08M-107" value="" style="shape=partialRectangle;html=1;whiteSpace=wrap;connectable=0;fillColor=none;top=0;left=0;bottom=0;right=0;overflow=hidden;" parent="9KIwmX_JMQ5P3gJYj08M-104" vertex="1">
          <mxGeometry x="170" width="40" height="20" as="geometry">
            <mxRectangle width="40" height="20" as="alternateBounds" />
          </mxGeometry>
        </mxCell>
        <mxCell id="9KIwmX_JMQ5P3gJYj08M-108" value="" style="shape=tableRow;horizontal=0;startSize=0;swimlaneHead=0;swimlaneBody=0;top=0;left=0;bottom=0;right=0;collapsible=0;dropTarget=0;fillColor=none;points=[[0,0.5],[1,0.5]];portConstraint=eastwest;html=0;" parent="9KIwmX_JMQ5P3gJYj08M-87" vertex="1">
          <mxGeometry y="130" width="210" height="20" as="geometry" />
        </mxCell>
        <mxCell id="9KIwmX_JMQ5P3gJYj08M-109" value="Fat" style="shape=partialRectangle;html=1;whiteSpace=wrap;connectable=0;fillColor=none;top=0;left=0;bottom=0;right=0;overflow=hidden;align=left;" parent="9KIwmX_JMQ5P3gJYj08M-108" vertex="1">
          <mxGeometry width="90" height="20" as="geometry">
            <mxRectangle width="90" height="20" as="alternateBounds" />
          </mxGeometry>
        </mxCell>
        <mxCell id="9KIwmX_JMQ5P3gJYj08M-110" value="Gram" style="shape=partialRectangle;html=1;whiteSpace=wrap;connectable=0;fillColor=none;top=0;left=0;bottom=0;right=0;overflow=hidden;" parent="9KIwmX_JMQ5P3gJYj08M-108" vertex="1">
          <mxGeometry x="90" width="80" height="20" as="geometry">
            <mxRectangle width="80" height="20" as="alternateBounds" />
          </mxGeometry>
        </mxCell>
        <mxCell id="9KIwmX_JMQ5P3gJYj08M-111" value="" style="shape=partialRectangle;html=1;whiteSpace=wrap;connectable=0;fillColor=none;top=0;left=0;bottom=0;right=0;overflow=hidden;" parent="9KIwmX_JMQ5P3gJYj08M-108" vertex="1">
          <mxGeometry x="170" width="40" height="20" as="geometry">
            <mxRectangle width="40" height="20" as="alternateBounds" />
          </mxGeometry>
        </mxCell>
        <mxCell id="9KIwmX_JMQ5P3gJYj08M-116" value="Meals" style="shape=table;startSize=30;container=1;collapsible=0;childLayout=tableLayout;fontStyle=1;align=center;html=0;" parent="1" vertex="1">
          <mxGeometry x="280" y="40" width="170" height="90" as="geometry" />
        </mxCell>
        <mxCell id="9KIwmX_JMQ5P3gJYj08M-117" value="" style="shape=tableRow;horizontal=0;startSize=0;swimlaneHead=0;swimlaneBody=0;top=0;left=0;bottom=0;right=0;collapsible=0;dropTarget=0;fillColor=none;points=[[0,0.5],[1,0.5]];portConstraint=eastwest;html=0;" parent="9KIwmX_JMQ5P3gJYj08M-116" vertex="1">
          <mxGeometry y="30" width="170" height="20" as="geometry" />
        </mxCell>
        <mxCell id="9KIwmX_JMQ5P3gJYj08M-118" value="&lt;u&gt;MealId&lt;/u&gt;" style="shape=partialRectangle;html=1;whiteSpace=wrap;connectable=0;fillColor=none;top=0;left=0;bottom=0;right=0;overflow=hidden;align=left;" parent="9KIwmX_JMQ5P3gJYj08M-117" vertex="1">
          <mxGeometry width="72" height="20" as="geometry">
            <mxRectangle width="72" height="20" as="alternateBounds" />
          </mxGeometry>
        </mxCell>
        <mxCell id="9KIwmX_JMQ5P3gJYj08M-119" value="Id" style="shape=partialRectangle;html=1;whiteSpace=wrap;connectable=0;fillColor=none;top=0;left=0;bottom=0;right=0;overflow=hidden;" parent="9KIwmX_JMQ5P3gJYj08M-117" vertex="1">
          <mxGeometry x="72" width="70" height="20" as="geometry">
            <mxRectangle width="70" height="20" as="alternateBounds" />
          </mxGeometry>
        </mxCell>
        <mxCell id="9KIwmX_JMQ5P3gJYj08M-120" value="PK" style="shape=partialRectangle;html=1;whiteSpace=wrap;connectable=0;fillColor=none;top=0;left=0;bottom=0;right=0;overflow=hidden;" parent="9KIwmX_JMQ5P3gJYj08M-117" vertex="1">
          <mxGeometry x="142" width="28" height="20" as="geometry">
            <mxRectangle width="28" height="20" as="alternateBounds" />
          </mxGeometry>
        </mxCell>
        <mxCell id="9KIwmX_JMQ5P3gJYj08M-121" value="" style="shape=tableRow;horizontal=0;startSize=0;swimlaneHead=0;swimlaneBody=0;top=0;left=0;bottom=0;right=0;collapsible=0;dropTarget=0;fillColor=none;points=[[0,0.5],[1,0.5]];portConstraint=eastwest;html=0;" parent="9KIwmX_JMQ5P3gJYj08M-116" vertex="1">
          <mxGeometry y="50" width="170" height="20" as="geometry" />
        </mxCell>
        <mxCell id="9KIwmX_JMQ5P3gJYj08M-122" value="MealTitle" style="shape=partialRectangle;html=1;whiteSpace=wrap;connectable=0;fillColor=none;top=0;left=0;bottom=0;right=0;overflow=hidden;align=left;" parent="9KIwmX_JMQ5P3gJYj08M-121" vertex="1">
          <mxGeometry width="72" height="20" as="geometry">
            <mxRectangle width="72" height="20" as="alternateBounds" />
          </mxGeometry>
        </mxCell>
        <mxCell id="9KIwmX_JMQ5P3gJYj08M-123" value="Title" style="shape=partialRectangle;html=1;whiteSpace=wrap;connectable=0;fillColor=none;top=0;left=0;bottom=0;right=0;overflow=hidden;" parent="9KIwmX_JMQ5P3gJYj08M-121" vertex="1">
          <mxGeometry x="72" width="70" height="20" as="geometry">
            <mxRectangle width="70" height="20" as="alternateBounds" />
          </mxGeometry>
        </mxCell>
        <mxCell id="9KIwmX_JMQ5P3gJYj08M-124" value="" style="shape=partialRectangle;html=1;whiteSpace=wrap;connectable=0;fillColor=none;top=0;left=0;bottom=0;right=0;overflow=hidden;" parent="9KIwmX_JMQ5P3gJYj08M-121" vertex="1">
          <mxGeometry x="142" width="28" height="20" as="geometry">
            <mxRectangle width="28" height="20" as="alternateBounds" />
          </mxGeometry>
        </mxCell>
        <mxCell id="9KIwmX_JMQ5P3gJYj08M-125" value="" style="shape=tableRow;horizontal=0;startSize=0;swimlaneHead=0;swimlaneBody=0;top=0;left=0;bottom=0;right=0;collapsible=0;dropTarget=0;fillColor=none;points=[[0,0.5],[1,0.5]];portConstraint=eastwest;html=0;" parent="9KIwmX_JMQ5P3gJYj08M-116" vertex="1">
          <mxGeometry y="70" width="170" height="20" as="geometry" />
        </mxCell>
        <mxCell id="9KIwmX_JMQ5P3gJYj08M-126" value="HappenedAt" style="shape=partialRectangle;html=1;whiteSpace=wrap;connectable=0;fillColor=none;top=0;left=0;bottom=0;right=0;overflow=hidden;align=left;" parent="9KIwmX_JMQ5P3gJYj08M-125" vertex="1">
          <mxGeometry width="72" height="20" as="geometry">
            <mxRectangle width="72" height="20" as="alternateBounds" />
          </mxGeometry>
        </mxCell>
        <mxCell id="9KIwmX_JMQ5P3gJYj08M-127" value="DateTime" style="shape=partialRectangle;html=1;whiteSpace=wrap;connectable=0;fillColor=none;top=0;left=0;bottom=0;right=0;overflow=hidden;" parent="9KIwmX_JMQ5P3gJYj08M-125" vertex="1">
          <mxGeometry x="72" width="70" height="20" as="geometry">
            <mxRectangle width="70" height="20" as="alternateBounds" />
          </mxGeometry>
        </mxCell>
        <mxCell id="9KIwmX_JMQ5P3gJYj08M-128" value="" style="shape=partialRectangle;html=1;whiteSpace=wrap;connectable=0;fillColor=none;top=0;left=0;bottom=0;right=0;overflow=hidden;" parent="9KIwmX_JMQ5P3gJYj08M-125" vertex="1">
          <mxGeometry x="142" width="28" height="20" as="geometry">
            <mxRectangle width="28" height="20" as="alternateBounds" />
          </mxGeometry>
        </mxCell>
        <mxCell id="9KIwmX_JMQ5P3gJYj08M-245" style="edgeStyle=elbowEdgeStyle;rounded=0;orthogonalLoop=1;jettySize=auto;elbow=vertical;html=1;exitX=0.5;exitY=0;exitDx=0;exitDy=0;entryX=0.214;entryY=1;entryDx=0;entryDy=0;entryPerimeter=0;startArrow=ERmany;startFill=0;endArrow=ERone;endFill=0;" parent="1" source="9KIwmX_JMQ5P3gJYj08M-141" target="9KIwmX_JMQ5P3gJYj08M-45" edge="1">
          <mxGeometry relative="1" as="geometry" />
        </mxCell>
        <mxCell id="9KIwmX_JMQ5P3gJYj08M-288" value="ownership" style="edgeLabel;html=1;align=center;verticalAlign=middle;resizable=0;points=[];" parent="9KIwmX_JMQ5P3gJYj08M-245" vertex="1" connectable="0">
          <mxGeometry x="-0.1482" y="-1" relative="1" as="geometry">
            <mxPoint as="offset" />
          </mxGeometry>
        </mxCell>
        <mxCell id="9KIwmX_JMQ5P3gJYj08M-250" style="edgeStyle=elbowEdgeStyle;rounded=0;orthogonalLoop=1;jettySize=auto;elbow=vertical;html=1;exitX=0.225;exitY=-0.006;exitDx=0;exitDy=0;entryX=0.243;entryY=1.017;entryDx=0;entryDy=0;entryPerimeter=0;startArrow=ERone;startFill=0;endArrow=ERmany;endFill=0;exitPerimeter=0;" parent="1" source="9KIwmX_JMQ5P3gJYj08M-141" target="9KIwmX_JMQ5P3gJYj08M-205" edge="1">
          <mxGeometry relative="1" as="geometry">
            <Array as="points">
              <mxPoint x="50" y="310" />
              <mxPoint x="70" y="470" />
            </Array>
          </mxGeometry>
        </mxCell>
        <mxCell id="9KIwmX_JMQ5P3gJYj08M-289" value="consists of" style="edgeLabel;html=1;align=center;verticalAlign=middle;resizable=0;points=[];" parent="9KIwmX_JMQ5P3gJYj08M-250" vertex="1" connectable="0">
          <mxGeometry x="0.4064" y="2" relative="1" as="geometry">
            <mxPoint x="1" y="41" as="offset" />
          </mxGeometry>
        </mxCell>
        <mxCell id="9KIwmX_JMQ5P3gJYj08M-272" style="edgeStyle=elbowEdgeStyle;rounded=0;orthogonalLoop=1;jettySize=auto;elbow=vertical;html=1;startArrow=ERmany;startFill=0;endArrow=ERmany;endFill=0;entryX=0.57;entryY=0.996;entryDx=0;entryDy=0;entryPerimeter=0;" parent="1" source="9KIwmX_JMQ5P3gJYj08M-141" target="Jm231_nbyRial1GPkGdm-2" edge="1">
          <mxGeometry relative="1" as="geometry">
            <mxPoint x="680" y="580" as="targetPoint" />
            <Array as="points">
              <mxPoint x="480" y="640" />
              <mxPoint x="250" y="730" />
              <mxPoint x="440" y="820" />
            </Array>
          </mxGeometry>
        </mxCell>
        <mxCell id="9KIwmX_JMQ5P3gJYj08M-141" value="Workouts" style="shape=table;startSize=30;container=1;collapsible=0;childLayout=tableLayout;fontStyle=1;align=center;html=0;" parent="1" vertex="1">
          <mxGeometry x="10" y="480" width="160" height="90" as="geometry" />
        </mxCell>
        <mxCell id="9KIwmX_JMQ5P3gJYj08M-142" value="" style="shape=tableRow;horizontal=0;startSize=0;swimlaneHead=0;swimlaneBody=0;top=0;left=0;bottom=0;right=0;collapsible=0;dropTarget=0;fillColor=none;points=[[0,0.5],[1,0.5]];portConstraint=eastwest;html=0;" parent="9KIwmX_JMQ5P3gJYj08M-141" vertex="1">
          <mxGeometry y="30" width="160" height="20" as="geometry" />
        </mxCell>
        <mxCell id="9KIwmX_JMQ5P3gJYj08M-143" value="&lt;u&gt;WorkoutId&lt;/u&gt;" style="shape=partialRectangle;html=1;whiteSpace=wrap;connectable=0;fillColor=none;top=0;left=0;bottom=0;right=0;overflow=hidden;align=left;" parent="9KIwmX_JMQ5P3gJYj08M-142" vertex="1">
          <mxGeometry width="69" height="20" as="geometry">
            <mxRectangle width="69" height="20" as="alternateBounds" />
          </mxGeometry>
        </mxCell>
        <mxCell id="9KIwmX_JMQ5P3gJYj08M-144" value="Id" style="shape=partialRectangle;html=1;whiteSpace=wrap;connectable=0;fillColor=none;top=0;left=0;bottom=0;right=0;overflow=hidden;" parent="9KIwmX_JMQ5P3gJYj08M-142" vertex="1">
          <mxGeometry x="69" width="61" height="20" as="geometry">
            <mxRectangle width="61" height="20" as="alternateBounds" />
          </mxGeometry>
        </mxCell>
        <mxCell id="9KIwmX_JMQ5P3gJYj08M-145" value="PK" style="shape=partialRectangle;html=1;whiteSpace=wrap;connectable=0;fillColor=none;top=0;left=0;bottom=0;right=0;overflow=hidden;" parent="9KIwmX_JMQ5P3gJYj08M-142" vertex="1">
          <mxGeometry x="130" width="30" height="20" as="geometry">
            <mxRectangle width="30" height="20" as="alternateBounds" />
          </mxGeometry>
        </mxCell>
        <mxCell id="9KIwmX_JMQ5P3gJYj08M-146" value="" style="shape=tableRow;horizontal=0;startSize=0;swimlaneHead=0;swimlaneBody=0;top=0;left=0;bottom=0;right=0;collapsible=0;dropTarget=0;fillColor=none;points=[[0,0.5],[1,0.5]];portConstraint=eastwest;html=0;" parent="9KIwmX_JMQ5P3gJYj08M-141" vertex="1">
          <mxGeometry y="50" width="160" height="20" as="geometry" />
        </mxCell>
        <mxCell id="9KIwmX_JMQ5P3gJYj08M-147" value="WorkoutTitle" style="shape=partialRectangle;html=1;whiteSpace=wrap;connectable=0;fillColor=none;top=0;left=0;bottom=0;right=0;overflow=hidden;align=left;" parent="9KIwmX_JMQ5P3gJYj08M-146" vertex="1">
          <mxGeometry width="69" height="20" as="geometry">
            <mxRectangle width="69" height="20" as="alternateBounds" />
          </mxGeometry>
        </mxCell>
        <mxCell id="9KIwmX_JMQ5P3gJYj08M-148" value="Title" style="shape=partialRectangle;html=1;whiteSpace=wrap;connectable=0;fillColor=none;top=0;left=0;bottom=0;right=0;overflow=hidden;" parent="9KIwmX_JMQ5P3gJYj08M-146" vertex="1">
          <mxGeometry x="69" width="61" height="20" as="geometry">
            <mxRectangle width="61" height="20" as="alternateBounds" />
          </mxGeometry>
        </mxCell>
        <mxCell id="9KIwmX_JMQ5P3gJYj08M-149" value="" style="shape=partialRectangle;html=1;whiteSpace=wrap;connectable=0;fillColor=none;top=0;left=0;bottom=0;right=0;overflow=hidden;" parent="9KIwmX_JMQ5P3gJYj08M-146" vertex="1">
          <mxGeometry x="130" width="30" height="20" as="geometry">
            <mxRectangle width="30" height="20" as="alternateBounds" />
          </mxGeometry>
        </mxCell>
        <mxCell id="9KIwmX_JMQ5P3gJYj08M-150" value="" style="shape=tableRow;horizontal=0;startSize=0;swimlaneHead=0;swimlaneBody=0;top=0;left=0;bottom=0;right=0;collapsible=0;dropTarget=0;fillColor=none;points=[[0,0.5],[1,0.5]];portConstraint=eastwest;html=0;" parent="9KIwmX_JMQ5P3gJYj08M-141" vertex="1">
          <mxGeometry y="70" width="160" height="20" as="geometry" />
        </mxCell>
        <mxCell id="9KIwmX_JMQ5P3gJYj08M-151" value="Description" style="shape=partialRectangle;html=1;whiteSpace=wrap;connectable=0;fillColor=none;top=0;left=0;bottom=0;right=0;overflow=hidden;align=left;" parent="9KIwmX_JMQ5P3gJYj08M-150" vertex="1">
          <mxGeometry width="69" height="20" as="geometry">
            <mxRectangle width="69" height="20" as="alternateBounds" />
          </mxGeometry>
        </mxCell>
        <mxCell id="9KIwmX_JMQ5P3gJYj08M-152" value="Description" style="shape=partialRectangle;html=1;whiteSpace=wrap;connectable=0;fillColor=none;top=0;left=0;bottom=0;right=0;overflow=hidden;" parent="9KIwmX_JMQ5P3gJYj08M-150" vertex="1">
          <mxGeometry x="69" width="61" height="20" as="geometry">
            <mxRectangle width="61" height="20" as="alternateBounds" />
          </mxGeometry>
        </mxCell>
        <mxCell id="9KIwmX_JMQ5P3gJYj08M-153" value="" style="shape=partialRectangle;html=1;whiteSpace=wrap;connectable=0;fillColor=none;top=0;left=0;bottom=0;right=0;overflow=hidden;" parent="9KIwmX_JMQ5P3gJYj08M-150" vertex="1">
          <mxGeometry x="130" width="30" height="20" as="geometry">
            <mxRectangle width="30" height="20" as="alternateBounds" />
          </mxGeometry>
        </mxCell>
        <mxCell id="9KIwmX_JMQ5P3gJYj08M-247" style="edgeStyle=elbowEdgeStyle;rounded=0;orthogonalLoop=1;jettySize=auto;elbow=horizontal;html=1;startArrow=ERmany;startFill=0;endArrow=ERone;endFill=0;entryX=0.857;entryY=0.996;entryDx=0;entryDy=0;entryPerimeter=0;" parent="1" source="9KIwmX_JMQ5P3gJYj08M-166" target="9KIwmX_JMQ5P3gJYj08M-45" edge="1">
          <mxGeometry relative="1" as="geometry">
            <mxPoint x="420" y="410" as="targetPoint" />
            <Array as="points">
              <mxPoint x="420" y="440" />
              <mxPoint x="440" y="440" />
            </Array>
          </mxGeometry>
        </mxCell>
        <mxCell id="9KIwmX_JMQ5P3gJYj08M-276" value="ownership" style="edgeLabel;html=1;align=center;verticalAlign=middle;resizable=0;points=[];" parent="9KIwmX_JMQ5P3gJYj08M-247" vertex="1" connectable="0">
          <mxGeometry x="-0.0559" relative="1" as="geometry">
            <mxPoint y="-5" as="offset" />
          </mxGeometry>
        </mxCell>
        <mxCell id="9KIwmX_JMQ5P3gJYj08M-166" value="Strategies" style="shape=table;startSize=30;container=1;collapsible=0;childLayout=tableLayout;fontStyle=1;align=center;html=0;" parent="1" vertex="1">
          <mxGeometry x="300" y="480" width="150" height="70" as="geometry" />
        </mxCell>
        <mxCell id="9KIwmX_JMQ5P3gJYj08M-167" value="" style="shape=tableRow;horizontal=0;startSize=0;swimlaneHead=0;swimlaneBody=0;top=0;left=0;bottom=0;right=0;collapsible=0;dropTarget=0;fillColor=none;points=[[0,0.5],[1,0.5]];portConstraint=eastwest;html=0;" parent="9KIwmX_JMQ5P3gJYj08M-166" vertex="1">
          <mxGeometry y="30" width="150" height="20" as="geometry" />
        </mxCell>
        <mxCell id="9KIwmX_JMQ5P3gJYj08M-168" value="&lt;u&gt;StrategyId&lt;/u&gt;" style="shape=partialRectangle;html=1;whiteSpace=wrap;connectable=0;fillColor=none;top=0;left=0;bottom=0;right=0;overflow=hidden;align=left;" parent="9KIwmX_JMQ5P3gJYj08M-167" vertex="1">
          <mxGeometry width="70" height="20" as="geometry">
            <mxRectangle width="70" height="20" as="alternateBounds" />
          </mxGeometry>
        </mxCell>
        <mxCell id="9KIwmX_JMQ5P3gJYj08M-169" value="Id" style="shape=partialRectangle;html=1;whiteSpace=wrap;connectable=0;fillColor=none;top=0;left=0;bottom=0;right=0;overflow=hidden;" parent="9KIwmX_JMQ5P3gJYj08M-167" vertex="1">
          <mxGeometry x="70" width="40" height="20" as="geometry">
            <mxRectangle width="40" height="20" as="alternateBounds" />
          </mxGeometry>
        </mxCell>
        <mxCell id="9KIwmX_JMQ5P3gJYj08M-170" value="PK" style="shape=partialRectangle;html=1;whiteSpace=wrap;connectable=0;fillColor=none;top=0;left=0;bottom=0;right=0;overflow=hidden;" parent="9KIwmX_JMQ5P3gJYj08M-167" vertex="1">
          <mxGeometry x="110" width="40" height="20" as="geometry">
            <mxRectangle width="40" height="20" as="alternateBounds" />
          </mxGeometry>
        </mxCell>
        <mxCell id="9KIwmX_JMQ5P3gJYj08M-171" value="" style="shape=tableRow;horizontal=0;startSize=0;swimlaneHead=0;swimlaneBody=0;top=0;left=0;bottom=0;right=0;collapsible=0;dropTarget=0;fillColor=none;points=[[0,0.5],[1,0.5]];portConstraint=eastwest;html=0;" parent="9KIwmX_JMQ5P3gJYj08M-166" vertex="1">
          <mxGeometry y="50" width="150" height="20" as="geometry" />
        </mxCell>
        <mxCell id="9KIwmX_JMQ5P3gJYj08M-172" value="StrategyTitle" style="shape=partialRectangle;html=1;whiteSpace=wrap;connectable=0;fillColor=none;top=0;left=0;bottom=0;right=0;overflow=hidden;align=left;" parent="9KIwmX_JMQ5P3gJYj08M-171" vertex="1">
          <mxGeometry width="70" height="20" as="geometry">
            <mxRectangle width="70" height="20" as="alternateBounds" />
          </mxGeometry>
        </mxCell>
        <mxCell id="9KIwmX_JMQ5P3gJYj08M-173" value="Title" style="shape=partialRectangle;html=1;whiteSpace=wrap;connectable=0;fillColor=none;top=0;left=0;bottom=0;right=0;overflow=hidden;" parent="9KIwmX_JMQ5P3gJYj08M-171" vertex="1">
          <mxGeometry x="70" width="40" height="20" as="geometry">
            <mxRectangle width="40" height="20" as="alternateBounds" />
          </mxGeometry>
        </mxCell>
        <mxCell id="9KIwmX_JMQ5P3gJYj08M-174" value="" style="shape=partialRectangle;html=1;whiteSpace=wrap;connectable=0;fillColor=none;top=0;left=0;bottom=0;right=0;overflow=hidden;" parent="9KIwmX_JMQ5P3gJYj08M-171" vertex="1">
          <mxGeometry x="110" width="40" height="20" as="geometry">
            <mxRectangle width="40" height="20" as="alternateBounds" />
          </mxGeometry>
        </mxCell>
        <mxCell id="9KIwmX_JMQ5P3gJYj08M-249" value="" style="edgeStyle=elbowEdgeStyle;rounded=0;orthogonalLoop=1;jettySize=auto;elbow=horizontal;html=1;startArrow=ERmany;startFill=0;endArrow=ERmany;endFill=0;exitX=0.547;exitY=-0.002;exitDx=0;exitDy=0;exitPerimeter=0;" parent="1" edge="1">
          <mxGeometry x="-0.0005" y="-30" relative="1" as="geometry">
            <mxPoint x="675.058" y="479.852" as="sourcePoint" />
            <mxPoint x="675" y="350" as="targetPoint" />
            <Array as="points">
              <mxPoint x="675" y="380" />
              <mxPoint x="680" y="370" />
            </Array>
            <mxPoint as="offset" />
          </mxGeometry>
        </mxCell>
        <mxCell id="9KIwmX_JMQ5P3gJYj08M-192" value="Activities" style="shape=table;startSize=30;container=1;collapsible=0;childLayout=tableLayout;fontStyle=1;align=center;html=0;" parent="1" vertex="1">
          <mxGeometry x="10" y="200" width="150" height="110" as="geometry" />
        </mxCell>
        <mxCell id="9KIwmX_JMQ5P3gJYj08M-193" value="" style="shape=tableRow;horizontal=0;startSize=0;swimlaneHead=0;swimlaneBody=0;top=0;left=0;bottom=0;right=0;collapsible=0;dropTarget=0;fillColor=none;points=[[0,0.5],[1,0.5]];portConstraint=eastwest;html=0;" parent="9KIwmX_JMQ5P3gJYj08M-192" vertex="1">
          <mxGeometry y="30" width="150" height="20" as="geometry" />
        </mxCell>
        <mxCell id="9KIwmX_JMQ5P3gJYj08M-194" value="&lt;u&gt;ActivityId&lt;/u&gt;" style="shape=partialRectangle;html=1;whiteSpace=wrap;connectable=0;fillColor=none;top=0;left=0;bottom=0;right=0;overflow=hidden;align=left;" parent="9KIwmX_JMQ5P3gJYj08M-193" vertex="1">
          <mxGeometry width="70" height="20" as="geometry">
            <mxRectangle width="70" height="20" as="alternateBounds" />
          </mxGeometry>
        </mxCell>
        <mxCell id="9KIwmX_JMQ5P3gJYj08M-195" value="Id" style="shape=partialRectangle;html=1;whiteSpace=wrap;connectable=0;fillColor=none;top=0;left=0;bottom=0;right=0;overflow=hidden;" parent="9KIwmX_JMQ5P3gJYj08M-193" vertex="1">
          <mxGeometry x="70" width="60" height="20" as="geometry">
            <mxRectangle width="60" height="20" as="alternateBounds" />
          </mxGeometry>
        </mxCell>
        <mxCell id="9KIwmX_JMQ5P3gJYj08M-196" value="PK" style="shape=partialRectangle;html=1;whiteSpace=wrap;connectable=0;fillColor=none;top=0;left=0;bottom=0;right=0;overflow=hidden;" parent="9KIwmX_JMQ5P3gJYj08M-193" vertex="1">
          <mxGeometry x="130" width="20" height="20" as="geometry">
            <mxRectangle width="20" height="20" as="alternateBounds" />
          </mxGeometry>
        </mxCell>
        <mxCell id="9KIwmX_JMQ5P3gJYj08M-197" value="" style="shape=tableRow;horizontal=0;startSize=0;swimlaneHead=0;swimlaneBody=0;top=0;left=0;bottom=0;right=0;collapsible=0;dropTarget=0;fillColor=none;points=[[0,0.5],[1,0.5]];portConstraint=eastwest;html=0;" parent="9KIwmX_JMQ5P3gJYj08M-192" vertex="1">
          <mxGeometry y="50" width="150" height="20" as="geometry" />
        </mxCell>
        <mxCell id="9KIwmX_JMQ5P3gJYj08M-198" value="ActivityTitle" style="shape=partialRectangle;html=1;whiteSpace=wrap;connectable=0;fillColor=none;top=0;left=0;bottom=0;right=0;overflow=hidden;align=left;" parent="9KIwmX_JMQ5P3gJYj08M-197" vertex="1">
          <mxGeometry width="70" height="20" as="geometry">
            <mxRectangle width="70" height="20" as="alternateBounds" />
          </mxGeometry>
        </mxCell>
        <mxCell id="9KIwmX_JMQ5P3gJYj08M-199" value="Title" style="shape=partialRectangle;html=1;whiteSpace=wrap;connectable=0;fillColor=none;top=0;left=0;bottom=0;right=0;overflow=hidden;" parent="9KIwmX_JMQ5P3gJYj08M-197" vertex="1">
          <mxGeometry x="70" width="60" height="20" as="geometry">
            <mxRectangle width="60" height="20" as="alternateBounds" />
          </mxGeometry>
        </mxCell>
        <mxCell id="9KIwmX_JMQ5P3gJYj08M-200" value="" style="shape=partialRectangle;html=1;whiteSpace=wrap;connectable=0;fillColor=none;top=0;left=0;bottom=0;right=0;overflow=hidden;" parent="9KIwmX_JMQ5P3gJYj08M-197" vertex="1">
          <mxGeometry x="130" width="20" height="20" as="geometry">
            <mxRectangle width="20" height="20" as="alternateBounds" />
          </mxGeometry>
        </mxCell>
        <mxCell id="9KIwmX_JMQ5P3gJYj08M-201" value="" style="shape=tableRow;horizontal=0;startSize=0;swimlaneHead=0;swimlaneBody=0;top=0;left=0;bottom=0;right=0;collapsible=0;dropTarget=0;fillColor=none;points=[[0,0.5],[1,0.5]];portConstraint=eastwest;html=0;" parent="9KIwmX_JMQ5P3gJYj08M-192" vertex="1">
          <mxGeometry y="70" width="150" height="20" as="geometry" />
        </mxCell>
        <mxCell id="9KIwmX_JMQ5P3gJYj08M-202" value="StartedAt" style="shape=partialRectangle;html=1;whiteSpace=wrap;connectable=0;fillColor=none;top=0;left=0;bottom=0;right=0;overflow=hidden;align=left;" parent="9KIwmX_JMQ5P3gJYj08M-201" vertex="1">
          <mxGeometry width="70" height="20" as="geometry">
            <mxRectangle width="70" height="20" as="alternateBounds" />
          </mxGeometry>
        </mxCell>
        <mxCell id="9KIwmX_JMQ5P3gJYj08M-203" value="DateTime" style="shape=partialRectangle;html=1;whiteSpace=wrap;connectable=0;fillColor=none;top=0;left=0;bottom=0;right=0;overflow=hidden;" parent="9KIwmX_JMQ5P3gJYj08M-201" vertex="1">
          <mxGeometry x="70" width="60" height="20" as="geometry">
            <mxRectangle width="60" height="20" as="alternateBounds" />
          </mxGeometry>
        </mxCell>
        <mxCell id="9KIwmX_JMQ5P3gJYj08M-204" value="" style="shape=partialRectangle;html=1;whiteSpace=wrap;connectable=0;fillColor=none;top=0;left=0;bottom=0;right=0;overflow=hidden;" parent="9KIwmX_JMQ5P3gJYj08M-201" vertex="1">
          <mxGeometry x="130" width="20" height="20" as="geometry">
            <mxRectangle width="20" height="20" as="alternateBounds" />
          </mxGeometry>
        </mxCell>
        <mxCell id="9KIwmX_JMQ5P3gJYj08M-205" value="" style="shape=tableRow;horizontal=0;startSize=0;swimlaneHead=0;swimlaneBody=0;top=0;left=0;bottom=0;right=0;collapsible=0;dropTarget=0;fillColor=none;points=[[0,0.5],[1,0.5]];portConstraint=eastwest;html=0;" parent="9KIwmX_JMQ5P3gJYj08M-192" vertex="1">
          <mxGeometry y="90" width="150" height="20" as="geometry" />
        </mxCell>
        <mxCell id="9KIwmX_JMQ5P3gJYj08M-206" value="EndedAt" style="shape=partialRectangle;html=1;whiteSpace=wrap;connectable=0;fillColor=none;top=0;left=0;bottom=0;right=0;overflow=hidden;align=left;" parent="9KIwmX_JMQ5P3gJYj08M-205" vertex="1">
          <mxGeometry width="70" height="20" as="geometry">
            <mxRectangle width="70" height="20" as="alternateBounds" />
          </mxGeometry>
        </mxCell>
        <mxCell id="9KIwmX_JMQ5P3gJYj08M-207" value="DateTime" style="shape=partialRectangle;html=1;whiteSpace=wrap;connectable=0;fillColor=none;top=0;left=0;bottom=0;right=0;overflow=hidden;" parent="9KIwmX_JMQ5P3gJYj08M-205" vertex="1">
          <mxGeometry x="70" width="60" height="20" as="geometry">
            <mxRectangle width="60" height="20" as="alternateBounds" />
          </mxGeometry>
        </mxCell>
        <mxCell id="9KIwmX_JMQ5P3gJYj08M-208" value="" style="shape=partialRectangle;html=1;whiteSpace=wrap;connectable=0;fillColor=none;top=0;left=0;bottom=0;right=0;overflow=hidden;" parent="9KIwmX_JMQ5P3gJYj08M-205" vertex="1">
          <mxGeometry x="130" width="20" height="20" as="geometry">
            <mxRectangle width="20" height="20" as="alternateBounds" />
          </mxGeometry>
        </mxCell>
        <mxCell id="9KIwmX_JMQ5P3gJYj08M-244" style="edgeStyle=elbowEdgeStyle;rounded=0;orthogonalLoop=1;jettySize=auto;elbow=vertical;html=1;startArrow=ERmany;startFill=0;endArrow=ERone;endFill=0;" parent="1" edge="1">
          <mxGeometry relative="1" as="geometry">
            <mxPoint x="160" y="270" as="sourcePoint" />
            <mxPoint x="240" y="270" as="targetPoint" />
            <Array as="points">
              <mxPoint x="220" y="270" />
            </Array>
          </mxGeometry>
        </mxCell>
        <mxCell id="9KIwmX_JMQ5P3gJYj08M-291" value="did" style="edgeLabel;html=1;align=center;verticalAlign=middle;resizable=0;points=[];" parent="9KIwmX_JMQ5P3gJYj08M-244" vertex="1" connectable="0">
          <mxGeometry x="-0.0401" y="2" relative="1" as="geometry">
            <mxPoint as="offset" />
          </mxGeometry>
        </mxCell>
        <mxCell id="9KIwmX_JMQ5P3gJYj08M-273" style="edgeStyle=orthogonalEdgeStyle;rounded=0;orthogonalLoop=1;jettySize=auto;html=1;entryX=0.5;entryY=0;entryDx=0;entryDy=0;startArrow=ERmany;startFill=0;endArrow=ERmany;endFill=0;elbow=vertical;" parent="1" source="9KIwmX_JMQ5P3gJYj08M-121" target="9KIwmX_JMQ5P3gJYj08M-87" edge="1">
          <mxGeometry relative="1" as="geometry">
            <Array as="points">
              <mxPoint x="665" y="90" />
            </Array>
          </mxGeometry>
        </mxCell>
        <mxCell id="9KIwmX_JMQ5P3gJYj08M-331" value="DaysWorkoutsOrder" style="shape=table;startSize=20;container=1;collapsible=0;childLayout=tableLayout;fontStyle=1;align=center;html=0;shadow=0;rounded=1;" parent="1" vertex="1">
          <mxGeometry x="300" y="620" width="150" height="38" as="geometry" />
        </mxCell>
        <mxCell id="9KIwmX_JMQ5P3gJYj08M-332" value="" style="shape=tableRow;horizontal=0;startSize=0;swimlaneHead=0;swimlaneBody=0;top=0;left=0;bottom=0;right=0;collapsible=0;dropTarget=0;fillColor=none;points=[[0,0.5],[1,0.5]];portConstraint=eastwest;html=0;" parent="9KIwmX_JMQ5P3gJYj08M-331" vertex="1">
          <mxGeometry y="20" width="150" height="18" as="geometry" />
        </mxCell>
        <mxCell id="9KIwmX_JMQ5P3gJYj08M-333" value="SeqNumber" style="shape=partialRectangle;html=1;whiteSpace=wrap;connectable=0;fillColor=none;top=0;left=0;bottom=0;right=0;overflow=hidden;" parent="9KIwmX_JMQ5P3gJYj08M-332" vertex="1">
          <mxGeometry width="70" height="18" as="geometry">
            <mxRectangle width="70" height="18" as="alternateBounds" />
          </mxGeometry>
        </mxCell>
        <mxCell id="9KIwmX_JMQ5P3gJYj08M-334" value="Number" style="shape=partialRectangle;html=1;whiteSpace=wrap;connectable=0;fillColor=none;top=0;left=0;bottom=0;right=0;overflow=hidden;" parent="9KIwmX_JMQ5P3gJYj08M-332" vertex="1">
          <mxGeometry x="70" width="47" height="18" as="geometry">
            <mxRectangle width="47" height="18" as="alternateBounds" />
          </mxGeometry>
        </mxCell>
        <mxCell id="9KIwmX_JMQ5P3gJYj08M-335" value="" style="shape=partialRectangle;html=1;whiteSpace=wrap;connectable=0;fillColor=none;top=0;left=0;bottom=0;right=0;overflow=hidden;" parent="9KIwmX_JMQ5P3gJYj08M-332" vertex="1">
          <mxGeometry x="117" width="33" height="18" as="geometry">
            <mxRectangle width="33" height="18" as="alternateBounds" />
          </mxGeometry>
        </mxCell>
        <mxCell id="9KIwmX_JMQ5P3gJYj08M-388" value="DaysFoodsAmount" style="shape=table;startSize=20;container=1;collapsible=0;childLayout=tableLayout;fontStyle=1;align=center;html=0;shadow=0;rounded=1;" parent="1" vertex="1">
          <mxGeometry x="610" y="390" width="160" height="56" as="geometry" />
        </mxCell>
        <mxCell id="9KIwmX_JMQ5P3gJYj08M-389" value="" style="shape=tableRow;horizontal=0;startSize=0;swimlaneHead=0;swimlaneBody=0;top=0;left=0;bottom=0;right=0;collapsible=0;dropTarget=0;fillColor=none;points=[[0,0.5],[1,0.5]];portConstraint=eastwest;html=0;" parent="9KIwmX_JMQ5P3gJYj08M-388" vertex="1">
          <mxGeometry y="20" width="160" height="18" as="geometry" />
        </mxCell>
        <mxCell id="9KIwmX_JMQ5P3gJYj08M-390" value="Amount" style="shape=partialRectangle;html=1;whiteSpace=wrap;connectable=0;fillColor=none;top=0;left=0;bottom=0;right=0;overflow=hidden;" parent="9KIwmX_JMQ5P3gJYj08M-389" vertex="1">
          <mxGeometry width="65" height="18" as="geometry">
            <mxRectangle width="65" height="18" as="alternateBounds" />
          </mxGeometry>
        </mxCell>
        <mxCell id="9KIwmX_JMQ5P3gJYj08M-391" value="Amount" style="shape=partialRectangle;html=1;whiteSpace=wrap;connectable=0;fillColor=none;top=0;left=0;bottom=0;right=0;overflow=hidden;" parent="9KIwmX_JMQ5P3gJYj08M-389" vertex="1">
          <mxGeometry x="65" width="72" height="18" as="geometry">
            <mxRectangle width="72" height="18" as="alternateBounds" />
          </mxGeometry>
        </mxCell>
        <mxCell id="9KIwmX_JMQ5P3gJYj08M-392" value="" style="shape=partialRectangle;html=1;whiteSpace=wrap;connectable=0;fillColor=none;top=0;left=0;bottom=0;right=0;overflow=hidden;" parent="9KIwmX_JMQ5P3gJYj08M-389" vertex="1">
          <mxGeometry x="137" width="23" height="18" as="geometry">
            <mxRectangle width="23" height="18" as="alternateBounds" />
          </mxGeometry>
        </mxCell>
        <mxCell id="9KIwmX_JMQ5P3gJYj08M-393" value="" style="shape=tableRow;horizontal=0;startSize=0;swimlaneHead=0;swimlaneBody=0;top=0;left=0;bottom=0;right=0;collapsible=0;dropTarget=0;fillColor=none;points=[[0,0.5],[1,0.5]];portConstraint=eastwest;html=0;" parent="9KIwmX_JMQ5P3gJYj08M-388" vertex="1">
          <mxGeometry y="38" width="160" height="18" as="geometry" />
        </mxCell>
        <mxCell id="9KIwmX_JMQ5P3gJYj08M-394" value="Weight" style="shape=partialRectangle;html=1;whiteSpace=wrap;connectable=0;fillColor=none;top=0;left=0;bottom=0;right=0;overflow=hidden;" parent="9KIwmX_JMQ5P3gJYj08M-393" vertex="1">
          <mxGeometry width="65" height="18" as="geometry">
            <mxRectangle width="65" height="18" as="alternateBounds" />
          </mxGeometry>
        </mxCell>
        <mxCell id="9KIwmX_JMQ5P3gJYj08M-395" value="FoodWeight" style="shape=partialRectangle;html=1;whiteSpace=wrap;connectable=0;fillColor=none;top=0;left=0;bottom=0;right=0;overflow=hidden;" parent="9KIwmX_JMQ5P3gJYj08M-393" vertex="1">
          <mxGeometry x="65" width="72" height="18" as="geometry">
            <mxRectangle width="72" height="18" as="alternateBounds" />
          </mxGeometry>
        </mxCell>
        <mxCell id="9KIwmX_JMQ5P3gJYj08M-396" value="" style="shape=partialRectangle;html=1;whiteSpace=wrap;connectable=0;fillColor=none;top=0;left=0;bottom=0;right=0;overflow=hidden;" parent="9KIwmX_JMQ5P3gJYj08M-393" vertex="1">
          <mxGeometry x="137" width="23" height="18" as="geometry">
            <mxRectangle width="23" height="18" as="alternateBounds" />
          </mxGeometry>
        </mxCell>
        <mxCell id="9KIwmX_JMQ5P3gJYj08M-399" value="MealsFoodsAmount" style="shape=table;startSize=20;container=1;collapsible=0;childLayout=tableLayout;fontStyle=1;align=center;html=0;shadow=0;rounded=1;" parent="1" vertex="1">
          <mxGeometry x="585" y="71" width="170" height="60" as="geometry" />
        </mxCell>
        <mxCell id="9KIwmX_JMQ5P3gJYj08M-400" value="" style="shape=tableRow;horizontal=0;startSize=0;swimlaneHead=0;swimlaneBody=0;top=0;left=0;bottom=0;right=0;collapsible=0;dropTarget=0;fillColor=none;points=[[0,0.5],[1,0.5]];portConstraint=eastwest;html=0;" parent="9KIwmX_JMQ5P3gJYj08M-399" vertex="1">
          <mxGeometry y="20" width="170" height="20" as="geometry" />
        </mxCell>
        <mxCell id="9KIwmX_JMQ5P3gJYj08M-401" value="Amount" style="shape=partialRectangle;html=1;whiteSpace=wrap;connectable=0;fillColor=none;top=0;left=0;bottom=0;right=0;overflow=hidden;" parent="9KIwmX_JMQ5P3gJYj08M-400" vertex="1">
          <mxGeometry width="65" height="20" as="geometry">
            <mxRectangle width="65" height="20" as="alternateBounds" />
          </mxGeometry>
        </mxCell>
        <mxCell id="9KIwmX_JMQ5P3gJYj08M-402" value="Amount" style="shape=partialRectangle;html=1;whiteSpace=wrap;connectable=0;fillColor=none;top=0;left=0;bottom=0;right=0;overflow=hidden;" parent="9KIwmX_JMQ5P3gJYj08M-400" vertex="1">
          <mxGeometry x="65" width="75" height="20" as="geometry">
            <mxRectangle width="75" height="20" as="alternateBounds" />
          </mxGeometry>
        </mxCell>
        <mxCell id="9KIwmX_JMQ5P3gJYj08M-403" value="" style="shape=partialRectangle;html=1;whiteSpace=wrap;connectable=0;fillColor=none;top=0;left=0;bottom=0;right=0;overflow=hidden;" parent="9KIwmX_JMQ5P3gJYj08M-400" vertex="1">
          <mxGeometry x="140" width="30" height="20" as="geometry">
            <mxRectangle width="30" height="20" as="alternateBounds" />
          </mxGeometry>
        </mxCell>
        <mxCell id="9KIwmX_JMQ5P3gJYj08M-404" value="" style="shape=tableRow;horizontal=0;startSize=0;swimlaneHead=0;swimlaneBody=0;top=0;left=0;bottom=0;right=0;collapsible=0;dropTarget=0;fillColor=none;points=[[0,0.5],[1,0.5]];portConstraint=eastwest;html=0;" parent="9KIwmX_JMQ5P3gJYj08M-399" vertex="1">
          <mxGeometry y="40" width="170" height="20" as="geometry" />
        </mxCell>
        <mxCell id="9KIwmX_JMQ5P3gJYj08M-405" value="Weight" style="shape=partialRectangle;html=1;whiteSpace=wrap;connectable=0;fillColor=none;top=0;left=0;bottom=0;right=0;overflow=hidden;" parent="9KIwmX_JMQ5P3gJYj08M-404" vertex="1">
          <mxGeometry width="65" height="20" as="geometry">
            <mxRectangle width="65" height="20" as="alternateBounds" />
          </mxGeometry>
        </mxCell>
        <mxCell id="9KIwmX_JMQ5P3gJYj08M-406" value="FoodWeight" style="shape=partialRectangle;html=1;whiteSpace=wrap;connectable=0;fillColor=none;top=0;left=0;bottom=0;right=0;overflow=hidden;" parent="9KIwmX_JMQ5P3gJYj08M-404" vertex="1">
          <mxGeometry x="65" width="75" height="20" as="geometry">
            <mxRectangle width="75" height="20" as="alternateBounds" />
          </mxGeometry>
        </mxCell>
        <mxCell id="9KIwmX_JMQ5P3gJYj08M-407" value="" style="shape=partialRectangle;html=1;whiteSpace=wrap;connectable=0;fillColor=none;top=0;left=0;bottom=0;right=0;overflow=hidden;" parent="9KIwmX_JMQ5P3gJYj08M-404" vertex="1">
          <mxGeometry x="140" width="30" height="20" as="geometry">
            <mxRectangle width="30" height="20" as="alternateBounds" />
          </mxGeometry>
        </mxCell>
        <mxCell id="Jm231_nbyRial1GPkGdm-10" style="edgeStyle=entityRelationEdgeStyle;rounded=0;comic=0;sketch=0;orthogonalLoop=1;jettySize=auto;html=1;strokeWidth=1;fontSize=12;startArrow=ERone;startFill=0;endArrow=ERmany;endFill=0;targetPerimeterSpacing=0;elbow=vertical;" parent="1" source="9KIwmX_JMQ5P3gJYj08M-167" edge="1">
          <mxGeometry relative="1" as="geometry">
            <mxPoint x="560" y="520" as="targetPoint" />
          </mxGeometry>
        </mxCell>
        <mxCell id="Jm231_nbyRial1GPkGdm-11" value="belongs" style="edgeLabel;html=1;align=center;verticalAlign=middle;resizable=0;points=[];fontSize=12;" parent="Jm231_nbyRial1GPkGdm-10" vertex="1" connectable="0">
          <mxGeometry x="-0.3258" y="1" relative="1" as="geometry">
            <mxPoint x="23" y="1" as="offset" />
          </mxGeometry>
        </mxCell>
      </root>
    </mxGraphModel>
  </diagram>
</mxfile>
